<svg viewBox="0 0 800 800" fill="none" xmlns="http://www.w3.org/2000/svg">
<path d="M133.333 25H33.3333C14.9238 25 0 39.924 0 58.3333V75C0 93.4093 14.9238 108.333 33.3333 108.333H100.397L191.209 491.04C206.089 553.75 261.355 598.36 325.49 599.957V600H586.247C651.207 600 706.713 553.187 717.67 489.157L759.523 244.578C766.49 203.857 735.123 166.667 693.81 166.667H199.886L173.874 57.0467C169.417 38.2623 152.639 25 133.333 25Z" fill="black"/>
<path d="M333.333 700.001C333.333 736.821 303.486 766.667 266.667 766.667C229.848 766.667 200 736.821 200 700.001C200 663.181 229.848 633.334 266.667 633.334C303.486 633.334 333.333 663.181 333.333 700.001Z" fill="black"/>
<path d="M700 700.001C700 736.821 670.153 766.667 633.333 766.667C596.513 766.667 566.667 736.821 566.667 700.001C566.667 663.181 596.513 633.334 633.333 633.334C670.153 633.334 700 663.181 700 700.001Z" fill="black"/>
</svg>
