<svg viewBox="0 0 800 800" fill="none" xmlns="http://www.w3.org/2000/svg">
<path d="M715.874 631.587C686.295 579.009 637.852 519.456 558.985 485.602C513.878 517.158 459.081 535.738 400.008 535.738C340.902 535.738 286.105 517.159 240.997 485.602C162.131 519.456 113.686 579.011 84.1251 631.587C44.8923 701.325 75.6517 800 143.503 800C211.356 800 400.01 800 400.01 800C400.01 800 588.644 800 656.499 800C724.349 800 755.108 701.325 715.874 631.587Z" fill="black"/>
<path d="M400.008 469.752C515.858 469.752 609.744 375.833 609.744 259.998V209.752C609.744 93.9187 515.858 0 400.008 0C284.141 0 190.239 93.9188 190.239 209.753V260C190.239 375.833 284.142 469.752 400.008 469.752Z" fill="black"/>
</svg>
