<svg viewBox="0 0 423 174" fill="none" xmlns="http://www.w3.org/2000/svg">
<path d="M190.648 61.0664C191.767 62.2415 193.474 62.8291 195.768 62.8291C198.062 62.8291 199.741 62.2415 200.804 61.0664C201.868 59.8353 202.399 58.3244 202.399 56.5337C202.399 54.631 201.868 53.0922 200.804 51.917C199.741 50.7419 198.062 50.1543 195.768 50.1543C193.474 50.1543 191.767 50.7419 190.648 51.917C189.584 53.0922 189.053 54.631 189.053 56.5337C189.053 58.3244 189.584 59.8353 190.648 61.0664Z" fill="black"/>
<path d="M137.362 68.2852L151.632 113.864H170.35L182.689 68.2852H171.442L162.157 104.295H160.175L149.366 68.2852H137.362Z" fill="black"/>
<path d="M228.94 115.291C222.673 115.291 217.748 113.976 214.167 111.346C210.642 108.66 208.795 104.966 208.627 100.266H219.119C219.287 101.833 220.155 103.26 221.721 104.547C223.288 105.834 225.751 106.477 229.108 106.477C231.906 106.477 234.116 105.974 235.739 104.966C237.418 103.959 238.257 102.588 238.257 100.853C238.257 99.3428 237.614 98.1397 236.327 97.2443C235.096 96.349 232.969 95.7614 229.947 95.4816L225.918 95.0619C220.826 94.5023 216.909 93.0474 214.167 90.6971C211.425 88.3468 210.054 85.2131 210.054 81.2959C210.054 78.1622 210.837 75.5321 212.404 73.4057C213.971 71.2792 216.126 69.6844 218.868 68.6212C221.665 67.502 224.855 66.9424 228.437 66.9424C234.032 66.9424 238.565 68.1735 242.035 70.6357C245.504 73.0979 247.323 76.7073 247.491 81.4638H236.998C236.886 79.897 236.103 78.5539 234.648 77.4347C233.193 76.3156 231.095 75.756 228.353 75.756C225.89 75.756 223.988 76.2316 222.645 77.1829C221.302 78.1342 220.63 79.3653 220.63 80.8762C220.63 82.3312 221.162 83.4504 222.225 84.2338C223.344 85.0172 225.135 85.5488 227.597 85.8286L231.626 86.2483C236.998 86.8079 241.195 88.2908 244.217 90.6971C247.295 93.1033 248.834 96.349 248.834 100.434C248.834 103.456 247.994 106.086 246.316 108.324C244.693 110.506 242.398 112.213 239.433 113.444C236.467 114.675 232.969 115.291 228.94 115.291Z" fill="black"/>
<path d="M255.618 61.0664C256.738 62.2415 258.444 62.8291 260.739 62.8291C263.033 62.8291 264.712 62.2415 265.775 61.0664C266.838 59.8353 267.37 58.3244 267.37 56.5337C267.37 54.631 266.838 53.0922 265.775 51.917C264.712 50.7419 263.033 50.1543 260.739 50.1543C258.444 50.1543 256.738 50.7419 255.618 51.917C254.555 53.0922 254.024 54.631 254.024 56.5337C254.024 58.3244 254.555 59.8353 255.618 61.0664Z" fill="black"/>
<path fill-rule="evenodd" clip-rule="evenodd" d="M299.283 115.459C295.254 115.459 291.701 114.815 288.623 113.528C285.545 112.241 282.943 110.506 280.816 108.324C278.69 106.086 277.067 103.567 275.948 100.769C274.885 97.9716 274.353 95.0617 274.353 92.0399V90.2772C274.353 87.1435 274.913 84.1776 276.032 81.3797C277.207 78.5258 278.858 76.0076 280.984 73.8252C283.167 71.5868 285.797 69.8521 288.875 68.621C291.952 67.3339 295.422 66.6904 299.283 66.6904C303.144 66.6904 306.614 67.3339 309.691 68.621C312.769 69.8521 315.371 71.5868 317.498 73.8252C319.68 76.0076 321.331 78.5258 322.45 81.3797C323.569 84.1776 324.129 87.1435 324.129 90.2772V92.0399C324.129 95.0617 323.569 97.9716 322.45 100.769C321.387 103.567 319.792 106.086 317.666 108.324C315.539 110.506 312.937 112.241 309.859 113.528C306.782 114.815 303.256 115.459 299.283 115.459ZM299.283 105.47C302.137 105.47 304.543 104.854 306.502 103.623C308.46 102.336 309.943 100.63 310.951 98.5032C311.958 96.3208 312.461 93.8586 312.461 91.1166C312.461 88.3186 311.93 85.8564 310.867 83.73C309.859 81.5476 308.348 79.8408 306.334 78.6097C304.375 77.3226 302.025 76.6791 299.283 76.6791C296.541 76.6791 294.163 77.3226 292.148 78.6097C290.19 79.8408 288.679 81.5476 287.615 83.73C286.552 85.8564 286.021 88.3186 286.021 91.1166C286.021 93.8586 286.524 96.3208 287.532 98.5032C288.595 100.63 290.106 102.336 292.064 103.623C294.023 104.854 296.429 105.47 299.283 105.47Z" fill="black"/>
<path d="M340.389 76.2596C339.988 77.2623 339.652 78.3482 339.382 79.5173V68.2854H330.148V113.864H341.816V87.0877C341.816 84.1219 342.683 81.7716 344.418 80.0369C346.209 78.2462 348.531 77.3508 351.385 77.3508C354.183 77.3508 356.365 78.2182 357.932 79.9529C359.555 81.6877 360.366 83.954 360.366 86.752V113.864H372.034V87.7592C372.034 80.8203 370.635 75.6161 367.837 72.1466C365.039 68.6212 360.926 66.8584 355.498 66.8584H354.994C351.357 66.8584 348.307 67.6419 345.845 69.2087C343.439 70.7756 341.62 73.1259 340.389 76.2596Z" fill="black"/>
<path d="M191.487 77.0149V113.864H203.155V68.2852H185.108V77.0149H191.487Z" fill="black"/>
<path d="M256.458 77.0149V113.864H268.125V68.2852H250.078V77.0149H256.458Z" fill="black"/>
<path d="M118 86.5C118 103.833 103.737 118 86 118C68.2625 118 54 103.833 54 86.5C54 69.1669 68.2625 55 86 55C103.737 55 118 69.1669 118 86.5Z" stroke="black" stroke-width="10"/>
</svg>
